<?xml version="1.0" encoding="UTF-8" standalone="no"?>
<!-- Created with Inkscape (http://www.inkscape.org/) -->

<svg
   xmlns:dc="http://purl.org/dc/elements/1.1/"
   xmlns:cc="http://creativecommons.org/ns#"
   xmlns:rdf="http://www.w3.org/1999/02/22-rdf-syntax-ns#"
   xmlns:svg="http://www.w3.org/2000/svg"
   xmlns="http://www.w3.org/2000/svg"
   xmlns:sodipodi="http://sodipodi.sourceforge.net/DTD/sodipodi-0.dtd"
   xmlns:inkscape="http://www.inkscape.org/namespaces/inkscape"
   width="34.607498mm"
   height="30.394995mm"
   viewBox="0 0 122.62499 107.6988"
   id="svg13355"
   version="1.1"
   inkscape:version="0.91 r"
   sodipodi:docname="attention.svg">
  <defs
     id="defs13357" />
  <sodipodi:namedview
     id="base"
     pagecolor="#ffffff"
     bordercolor="#666666"
     borderopacity="1.0"
     inkscape:pageopacity="0.0"
     inkscape:pageshadow="2"
     inkscape:zoom="2.8"
     inkscape:cx="89.945774"
     inkscape:cy="-6.3625928"
     inkscape:document-units="px"
     inkscape:current-layer="layer1"
     showgrid="false"
     fit-margin-top="0"
     fit-margin-left="0"
     fit-margin-right="0"
     fit-margin-bottom="0"
     inkscape:window-width="1920"
     inkscape:window-height="1028"
     inkscape:window-x="-2"
     inkscape:window-y="-3"
     inkscape:window-maximized="1" />
  <metadata
     id="metadata13360">
    <rdf:RDF>
      <cc:Work
         rdf:about="">
        <dc:format>image/svg+xml</dc:format>
        <dc:type
           rdf:resource="http://purl.org/dc/dcmitype/StillImage" />
        <dc:title></dc:title>
      </cc:Work>
    </rdf:RDF>
  </metadata>
  <g
     inkscape:label="Layer 1"
     inkscape:groupmode="layer"
     id="layer1"
     transform="translate(-398.92679,-361.36345)">
    <path
       inkscape:connector-curvature="0"
       id="path3984"
       style="fill:#231f20;fill-opacity:1;fill-rule:evenodd;stroke:none"
       d="m 520.50179,464.1872 -56.85,-101.025 -0.6,-0.75 -0.375,-0.375 -0.375,-0.225 -0.45,-0.225 -0.375,-0.075 -0.525,-0.14875 -0.375,0 -0.45,0.0738 -0.45,0.075 -0.9,0.3 -0.375,0.30125 -0.45,0.29875 -0.3,0.375 -0.3,0.45125 -57.975,102.07375 -0.225,0.30125 -0.15,0.74875 -0.075,0.3 0.075,0.375 0.075,0.3 0.3,0.6 0.225,0.225 0.3,0.225 0.3,0.15 0.3,0.225 0.45,0.075 0.375,0.075 0.45,0.0762 0.525,0 114.975,0.0738 1.5,0 0.6,-0.0738 1.05,-0.30125 0.375,-0.225 0.3,-0.22375 0.225,-0.30125 0.15,-0.375 0.075,-0.37375 0,-0.37625 -0.075,-0.45 -0.15,-0.45 -0.225,-0.525 -0.225,-0.6 -0.375,-0.6" />
    <path
       inkscape:connector-curvature="0"
       id="path3986"
       style="fill:#f4ea18;fill-opacity:1;fill-rule:evenodd;stroke:none"
       d="m 460.12679,373.58845 -51.225,88.72375 102.675,0 -51.45,-88.72375" />
    <path
       inkscape:connector-curvature="0"
       id="path3988"
       style="fill:#231f20;fill-opacity:1;fill-rule:evenodd;stroke:none"
       d="m 460.35179,395.7122 -0.675,0 -0.675,0.075 -0.6,0.15 -0.6,0.225 -0.6,0.30125 -0.6,0.44875 -0.45,0.375 -0.9,1.05125 -0.375,0.52375 -0.6,1.2 -0.3,1.2 0,1.125 0.15,1.05 0.075,0.975 0.15,0.975 0.15,1.95125 0.15,0.97375 0.15,1.95 0.075,1.05 0.225,2.92625 0.15,0.975 0.15,1.94875 0,0.975 0.075,1.05 0.45,5.85 0.15,1.05 0.3,3.90125 0.15,0.975 0.075,0.97375 0.3,1.95 0.15,0.45125 0.15,0.15 0.15,0.22375 0.225,0.15125 0.225,0.22375 0.225,0.15125 1.2,0.6 0.375,0.0737 0.3,0.15 0.3,0.075 0.3,0 0.3,0.075 0.375,-0.075 0.6,-0.15 0.3,-0.075 0.3,-0.0737 0.9,-0.45125 0.225,-0.14875 0.225,-0.22625 0.225,-0.14875 0.375,-0.375 0.075,-0.22625 0.15,-0.225 0,-0.15 0.075,-0.825 0.075,-0.9 0.075,-0.97375 0.075,-1.05125 0.15,-1.125 0.075,-1.125 0.075,-1.19875 0.15,-1.27625 0.075,-1.275 0.15,-1.27375 0.15,-1.35125 0.075,-1.275 0.15,-1.35 0.075,-1.35 0.15,-1.35 0.075,-1.275 0.15,-1.275 0.075,-1.275 0.15,-1.2 0.075,-1.2 0.075,-1.125 0.15,-1.05 0.15,-1.95 0.075,-0.825 0.075,-0.75 0.075,-0.675 0.075,-0.59875 0,-0.45125 0.075,-0.375 0,-0.75 -0.075,-0.525 -0.15,-0.45 -0.225,-0.6 -0.3,-0.525 -0.75,-1.05 -0.525,-0.525 -1.05,-0.9 -0.6,-0.37375 -0.6,-0.30125 -1.35,-0.45 -0.675,-0.075 -0.75,0.075" />
    <path
       inkscape:connector-curvature="0"
       id="path3990"
       style="fill:#231f20;fill-opacity:1;fill-rule:evenodd;stroke:none"
       d="m 459.90179,441.9122 0.6,0 0.6,0.0763 0.525,0.14875 1.05,0.45125 0.525,0.29875 0.375,0.375 0.45,0.375 0.375,0.375 0.3,0.45125 0.3,0.52375 0.3,0.45 0.15,0.525 0.15,0.6 0.075,0.6 0.075,0.525 -0.15,1.2 -0.3,1.05 -0.6,1.05125 -0.3,0.375 -0.375,0.44875 -0.45,0.375 -0.375,0.30125 -1.05,0.59875 -1.05,0.3 -1.2,0.15 -0.6,-0.0738 -0.525,-0.0763 -0.6,-0.14875 -0.525,-0.15125 -0.45,-0.3 -0.525,-0.29875 -0.45,-0.30125 -0.375,-0.375 -0.375,-0.44875 -0.375,-0.375 -0.3,-0.52625 -0.45,-1.05 -0.15,-0.525 -0.075,-0.6 0,-1.125 0.075,-0.6 0.15,-0.6 0.225,-0.525 0.225,-0.45 0.3,-0.52375 0.375,-0.45125 0.75,-0.75 0.45,-0.375 0.525,-0.29875 0.45,-0.225 0.525,-0.22615 0.6,-0.14875 0.525,-0.0763 0.6,0" />
  </g>
</svg>
