<?xml version="1.0" encoding="UTF-8" standalone="no"?>
<!-- Created with Inkscape (http://www.inkscape.org/) -->

<svg
   xmlns:dc="http://purl.org/dc/elements/1.1/"
   xmlns:cc="http://creativecommons.org/ns#"
   xmlns:rdf="http://www.w3.org/1999/02/22-rdf-syntax-ns#"
   xmlns:svg="http://www.w3.org/2000/svg"
   xmlns="http://www.w3.org/2000/svg"
   xmlns:sodipodi="http://sodipodi.sourceforge.net/DTD/sodipodi-0.dtd"
   xmlns:inkscape="http://www.inkscape.org/namespaces/inkscape"
   width="26.077333mm"
   height="26.098499mm"
   viewBox="0 0 92.4 92.474997"
   id="svg12705"
   version="1.1"
   inkscape:version="0.91 r"
   sodipodi:docname="eye-protection.svg">
  <defs
     id="defs12707" />
  <sodipodi:namedview
     id="base"
     pagecolor="#ffffff"
     bordercolor="#666666"
     borderopacity="1.0"
     inkscape:pageopacity="0.0"
     inkscape:pageshadow="2"
     inkscape:zoom="5.6"
     inkscape:cx="54.054466"
     inkscape:cy="52.254794"
     inkscape:document-units="px"
     inkscape:current-layer="layer1"
     showgrid="false"
     fit-margin-top="0"
     fit-margin-left="0"
     fit-margin-right="0"
     fit-margin-bottom="0"
     inkscape:window-width="1920"
     inkscape:window-height="1028"
     inkscape:window-x="-2"
     inkscape:window-y="-3"
     inkscape:window-maximized="1" />
  <metadata
     id="metadata12710">
    <rdf:RDF>
      <cc:Work
         rdf:about="">
        <dc:format>image/svg+xml</dc:format>
        <dc:type
           rdf:resource="http://purl.org/dc/dcmitype/StillImage" />
        <dc:title></dc:title>
      </cc:Work>
    </rdf:RDF>
  </metadata>
  <g
     inkscape:label="Layer 1"
     inkscape:groupmode="layer"
     id="layer1"
     transform="translate(-108.12321,-383.30506)">
    <path
       inkscape:connector-curvature="0"
       id="path2050"
       style="fill:#2744a0;fill-opacity:1;fill-rule:evenodd;stroke:none"
       d="m 154.32321,383.30506 2.325,0 2.325,0.225 2.325,0.30125 2.325,0.37375 2.175,0.525 2.25,0.6 2.1,0.75125 2.1,0.82375 4.05,1.95 1.95,1.125 1.875,1.2 1.8,1.275 1.725,1.425 1.65,1.42625 1.65,1.49875 3,3.3 1.35,1.8 1.275,1.8 1.2,1.875 1.125,1.95 1.05,1.95 0.9,2.1 0.825,2.025 0.75,2.175 0.6,2.175 0.525,2.25 0.375,2.25 0.375,2.325 0.15,2.4 0.075,2.325 -0.075,2.4 -0.15,2.325 -0.375,2.325 -0.375,2.25 -0.525,2.25 -0.6,2.175 -0.75,2.175 -0.825,2.1 -0.9,2.025 -1.05,2.02625 -1.125,1.87375 -1.2,1.875 -1.275,1.87625 -1.35,1.72375 -3,3.3 -3.3,3 -1.725,1.35 -1.8,1.275 -1.875,1.2 -1.95,1.125 -2.025,1.05 -2.025,0.9 -2.1,0.825 -2.1,0.75 -2.25,0.6 -2.175,0.525 -4.65,0.75 -2.325,0.15 -2.325,0.075 -2.4,-0.075 -2.325,-0.15 -2.325,-0.375 -2.25,-0.375 -2.25,-0.525 -2.175,-0.6 -2.175,-0.75 -2.1,-0.825 -2.025,-0.9 -2.025,-1.05 -1.875,-1.125 -1.875,-1.2 -1.875,-1.275 -1.725,-1.35 -3.3,-3 -1.5,-1.65 -1.425,-1.65 -1.425,-1.72375 -1.275,-1.87625 -1.2,-1.875 -1.125,-1.87375 -1.05,-2.02625 -0.9,-2.025 -0.825,-2.1 -0.75,-2.175 -0.6,-2.175 -0.525,-2.25 -0.375,-2.25 -0.3,-2.325 -0.225,-2.325 0,-4.725 0.225,-2.4 0.3,-2.325 0.375,-2.25 0.525,-2.25 0.6,-2.175 0.75,-2.175 0.825,-2.025 0.9,-2.1 1.05,-1.95 1.125,-1.95 1.2,-1.875 1.275,-1.8 1.425,-1.8 1.425,-1.64875 1.5,-1.65125 1.65,-1.49875 1.65,-1.42625 1.725,-1.425 1.875,-1.275 1.875,-1.2 1.875,-1.125 4.05,-1.95 2.1,-0.82375 2.175,-0.75125 2.175,-0.6 2.25,-0.525 2.25,-0.37375 2.325,-0.30125 2.325,-0.225 2.4,0" />
    <path
       inkscape:connector-curvature="0"
       id="path2052"
       style="fill:#ffffff;fill-opacity:1;fill-rule:evenodd;stroke:none"
       d="m 174.87321,422.98006 0.975,1.5 -4.5,2.175 -0.075,0 0,-0.825 0.075,-0.225 0,-0.14875 0.075,-0.15125 -0.075,-0.075 -0.075,-0.075 -0.075,-0.075 -0.15,-0.075 -0.075,-0.075 -0.075,0 -0.075,-0.075 4.05,-1.875" />
    <path
       inkscape:connector-curvature="0"
       id="path2054"
       style="fill:#ffffff;fill-opacity:1;fill-rule:evenodd;stroke:none"
       d="m 172.54821,423.58006 -1.875,1.05 -2.7,-0.675 4.575,-0.375" />
    <path
       inkscape:connector-curvature="0"
       id="path2056"
       style="fill:#ffffff;fill-opacity:1;fill-rule:evenodd;stroke:none"
       d="m 171.27321,427.10506 2.025,-0.6 -1.65,7.425 -0.075,0.075 -0.15,0 -0.45,0.3 -0.75,0.3 -0.375,0.225 -0.375,0.15 0.3,-0.9 0.15,-0.525 0.45,-1.34875 0.075,-0.52625 0.15,-0.45 0.075,-0.45 0.15,-0.525 0.075,-0.525 0.075,-0.45 0.15,-1.05 0.075,-0.6 0.075,-0.525" />
    <path
       inkscape:connector-curvature="0"
       id="path2058"
       style="fill:#ffffff;fill-opacity:1;fill-rule:evenodd;stroke:none"
       d="m 136.17321,425.60506 0.525,-0.14875 0.9,-0.30125 0.525,-0.15 0.9,-0.3 0.45,-0.075 0.45,-0.15 0.45,-0.075 0.45,-0.0738 0.525,-0.0762 0.45,-0.075 0.45,0 0.45,-0.075 0.45,0 0.45,-0.075 1.425,0 0.45,0.075 0.45,0 0.45,0.075 0.45,0 0.9,0.15125 0.45,0.14875 0.525,0.075 0.45,0.075 0.9,0.3 0.525,0.15 0.45,0.15 0,0.3 0.075,0.3 0,1.575 0.075,0.30125 0,1.79875 -0.075,0.225 0,0.9 -0.075,0.3 0,0.6 -0.075,0.3 0,0.3 -0.075,0.3 0,0.375 -0.225,0.9 0,0.375 -0.075,0.3 -0.15,0.75 -0.225,0.9 -0.15,0.3 -0.15,0.37625 -0.225,0.29875 -0.6,0.6 -0.375,0.3 -0.45,0.225 -0.45,0.225 -0.525,0.225 -1.35,0.45 -0.75,0.15 -0.825,0.075 -0.825,0 -0.825,-0.075 -0.675,-0.15 -0.6,-0.15 -0.525,-0.225 -0.45,-0.225 -0.45,-0.3 -0.3,-0.225 -0.375,-0.3 -0.225,-0.375 -0.225,-0.3 -0.15,-0.3 -0.15,-0.375 -0.3,-0.6 -0.075,-0.375 -0.075,-0.225 -0.15,-0.3 -0.15,-0.45 -0.15,-0.3 -0.15,-0.45 -0.075,-0.3 -0.15,-0.45 -0.075,-0.3 -0.075,-0.225 -0.075,-0.3 -0.075,-0.225 -0.15,-0.6 0,-0.225 -0.15,-0.6 0,-0.3 -0.15,-0.6 0,-0.37375 -0.075,-0.30125 0,-0.375 -0.075,-0.375 0,-0.375 -0.075,-0.375 0,-0.375 -0.075,-0.375 0,-0.45 -0.075,-0.45" />
    <path
       inkscape:connector-curvature="0"
       id="path2060"
       style="fill:#2744a0;fill-opacity:1;fill-rule:nonzero;stroke:none"
       d="m 149.37321,427.03006 -0.375,-0.525 -0.3,-0.075 -0.375,-0.075 -0.3,-0.15 -0.375,-0.075 -0.3,-0.075 -0.75,-0.15 -0.3,0 -0.3,-0.075 -0.375,0 -0.3,-0.075 -0.675,0 -0.375,-0.075 -0.6,0 -0.375,0.075 -0.6,0 -0.375,0.075 -0.375,0 -0.6,0.15 -0.375,0.075 -0.3,0.075 -0.375,0.075 -0.3,0.075 -0.375,0.075 -0.3,0.15 -0.375,0.0762 -0.3,0.14875 -0.375,0.15 0.375,0.975 0.3,-0.075 0.375,-0.15 0.3,-0.075 0.3,-0.15 0.375,-0.075 0.6,-0.15 0.3,-0.075 0.3,-0.075 0.3,-0.075 0.375,0 0.225,-0.075 0.375,0 0.3,-0.075 1.875,0 0.225,0.075 0.675,0 0.3,0.075 0.3,0.075 0.3,0 0.3,0.075 0.375,0.075 0.3,0.075 0.3,0.15 0.375,0.075 0.3,0.075 -0.375,-0.45 1.05,-0.075 0,-0.375 -0.375,-0.15 0.375,0.525" />
    <path
       inkscape:connector-curvature="0"
       id="path2062"
       style="fill:#2744a0;fill-opacity:1;fill-rule:nonzero;stroke:none"
       d="m 148.92321,434.00506 0,0.075 0.15,-0.45 0.075,-0.525 0.225,-1.35 0,-0.375 0.075,-0.45 0,-3.45 -0.075,-0.45 -1.05,0.075 0,0.45 0.075,0.45 0,2.4 -0.075,0.45 0,0.375 -0.075,0.45 0,0.375 -0.225,1.35 -0.15,0.45 0,0.075 1.05,0.075" />
    <path
       inkscape:connector-curvature="0"
       id="path2064"
       style="fill:#2744a0;fill-opacity:1;fill-rule:nonzero;stroke:none"
       d="m 144.19821,437.45506 0,0 0.6,-0.075 0.6,-0.15 0.525,-0.15 0.9,-0.3 0.375,-0.225 0.3,-0.15 0.375,-0.225 0.225,-0.3 0.225,-0.225 0.15,-0.3 0.15,-0.225 0.15,-0.3 0.075,-0.3 0.075,-0.225 0,-0.3 -1.05,-0.075 0,0.225 -0.075,0.075 -0.075,0.22625 -0.075,0.14875 -0.075,0.225 -0.075,0.15 -0.225,0.15 -0.15,0.15 -0.225,0.15 -0.225,0.225 -0.3,0.15 -0.375,0.15 -0.375,0.075 -0.45,0.15 -0.525,0.075 -0.525,0.075 0.075,0 0,1.125" />
    <path
       inkscape:connector-curvature="0"
       id="path2066"
       style="fill:#2744a0;fill-opacity:1;fill-rule:nonzero;stroke:none"
       d="m 139.39821,434.38006 -0.075,-0.075 0.075,0.225 0.15,0.225 0.075,0.3 0.075,0.225 0.15,0.30125 0.225,0.22375 0.225,0.3 0.225,0.225 0.6,0.45 0.45,0.225 0.375,0.15 0.525,0.075 0.525,0.15 0.525,0.075 0.675,0 0,-1.125 -0.6,0 -0.525,-0.075 -0.375,-0.075 -0.375,-0.075 -0.375,-0.15 -0.3,-0.15 -0.225,-0.075 -0.15,-0.225 -0.225,-0.15 -0.15,-0.15 -0.075,-0.225 -0.15,-0.15 -0.15,-0.45 -0.075,-0.15 -0.075,-0.225 0,-0.075 -0.975,0.45" />
    <path
       inkscape:connector-curvature="0"
       id="path2068"
       style="fill:#2744a0;fill-opacity:1;fill-rule:nonzero;stroke:none"
       d="m 138.27321,426.88006 -0.375,0.525 0.15,1.2 0.075,0.525 0,0.45 0.075,0.525 0.075,0.45 0.075,0.375 0.075,0.45 0.075,0.375 0.15,0.375 0.15,0.75 0.6,1.5 0.975,-0.45 -0.3,-0.75 -0.075,-0.3 -0.15,-0.3 -0.075,-0.37375 -0.075,-0.30125 -0.15,-0.375 -0.15,-0.75 -0.075,-0.45 -0.075,-0.37375 0,-0.45125 -0.225,-1.575 0,-0.6 -0.375,0.525 -0.375,-0.975 -0.375,0.15 0,0.375 0.375,-0.525" />
    <path
       inkscape:connector-curvature="0"
       id="path2070"
       style="fill:#ffffff;fill-opacity:1;fill-rule:evenodd;stroke:none"
       d="m 152.97321,393.05506 0.3,0.075 0.375,0.075 0.375,0.075 0.375,0.075 0.375,0.075 0.3,0.075 0.375,0.075 0.375,0.15 0.75,0.15 0.3,0.0762 1.5,0.29875 0.3,0.075 0.375,0.075 0.375,0.075 0.375,0.075 0.375,0.075 0.3,0.15 0.375,0.075 0.375,0.075 0.375,0.075 0.375,0.0762 0.375,0.0738 0.3,0.075 0.375,0.0763 1.125,0.22375 0.3,0.15 0.375,0.45 0.3,0.525 0.6,0.9 0.3,0.525 0.6,0.9 0.3,0.525 0.6,0.9 0.3,0.52625 1.2,1.79875 0.3,0.525 0.6,0.9 0.75,0.9 0.3,0.525 1.125,1.35 0.45,0.52625 0.45,0.44875 0.375,0.525 0.525,0.45 0.45,0.45 0.45,0.525 0.525,0.525 0.525,0.45125 0,0.52375 -0.15,0.60125 0,0.37375 -0.075,0.375 -0.075,0.45 -0.075,0.525 -0.075,0.45 -0.075,0.525 -0.075,0.6 -0.15,1.05 -0.075,0.6 -0.075,0.525 -0.075,0.6 -0.075,0.525 -0.075,0.6 -0.075,0.525 -0.3,1.8 0,0.375 -0.15,0.6 0,0.375 -0.075,0.075 -0.075,0.075 -0.15,0.075 -0.225,0.075 -0.3,0.0762 -0.225,0.0738 -0.225,0.075 -0.225,0.0763 -0.075,0 0,-0.15125 0.075,-0.15 0,-1.125 0.075,-0.375 0,-0.9 0.075,-0.525 0,-1.05 0.075,-0.525 0,-0.525 0.075,-0.52375 0,-0.60125 0.075,-0.52375 0,-0.60125 0.075,-0.52375 0,-0.52625 0.075,-0.45 0,-0.525 0.075,-0.45 0.075,-0.375 0,-0.375 0.075,-0.375 0,-0.29875 0.075,-0.22625 0,-0.225 0.075,-0.075 0.075,-0.075 -0.225,-0.075 -0.3,-0.15 -0.45,-0.375 -0.6,-0.45 -0.675,-0.59875 -0.75,-0.67625 -0.75,-0.75 -0.825,-0.75 -0.75,-0.675 -0.75,-0.75 -0.75,-0.675 -0.6,-0.675 -0.9,-0.9 -0.3,-0.225 -0.075,-0.15 0,0.15 0.075,0.225 0.075,0.3 0.075,0.375 0.15,0.45 0,0.3 0.075,0.225 0.075,0.075 -0.225,0.075 -0.375,0 -0.45,-0.075 -0.45,-0.075 -0.6,-0.15 -1.8,-0.675 -0.675,-0.3 -0.525,-0.225 -0.525,-0.3 -0.525,-0.225 -0.375,-0.15 -0.45,-0.3 0,-0.075 0.15,0.075 0.45,0.45 0.225,0.3 0.225,0.375 0.225,0.3 0.15,0.15 0.075,0.075 0,0.075 -0.15,0 -0.15,0.075 -0.15,0 -0.15,0.075 -0.225,0 -0.225,0.075 -0.225,0 -0.3,0.0762 -1.05,0 -0.375,-0.0762 -0.45,0 -0.9,-0.15 -0.525,-0.075 -0.525,-0.15 -0.525,-0.15 -0.6,-0.225 -0.6,-0.225 -0.6,-0.225 -0.675,-0.3 -2.025,-1.125 -2.25,-1.57375 -0.75,-0.60125 -0.825,-0.675 -0.45,0.6 -0.375,0.6 -0.45,0.525 -0.375,0.45125 -0.9,0.89875 -0.375,0.3 -0.45,0.375 -0.375,0.3 -0.45,0.225 -0.375,0.225 -0.375,0.225 -0.45,0.15 -0.3,0.15 -0.375,0.075 -0.375,0.15 -0.375,0.075 -0.3,0 -0.3,0.075 -0.6,0 -0.225,0.075 -0.3,-0.075 -0.75,0 -0.15,-0.075 -0.225,0 -0.075,0.075 -0.15,0.225 -0.225,0.3 -0.225,0.45 -0.375,0.45 -0.3,0.525 -0.45,0.525 -0.375,0.525 -0.45,0.6 -0.375,0.525 -0.3,0.52625 -0.375,0.44875 -0.3,0.375 -0.15,0.30125 -0.15,0.22375 -0.075,0.075 0.075,0.075 0,0.225 0.075,0.225 0.15,0.6 0.075,0.375 0.15,0.45125 0.075,0.44875 0.15,0.45 0.075,0.525 0.15,0.525 0.15,0.6 0.15,0.525 0.3,1.2 0.075,0.6 0.15,0.6 0.15,0.525 0.15,0.6 0.15,0.525 0.075,0.525 0.3,0.9 0.075,0.45125 0.075,0.37375 0.15,0.6 0.15,0.45 0,0.075 -0.225,0 -0.15,-0.075 -0.15,0 -0.225,-0.0738 -0.15,-0.0763 -0.225,-0.075 -0.225,-0.0738 -0.225,-0.0762 -0.15,-0.075 -0.15,-0.075 -0.15,-0.075 -0.075,-0.15 -0.075,-0.075 0,-0.225 -0.075,-0.15 0,-0.45 -0.075,-0.375 -0.075,-0.3 -0.15,-0.9 -0.15,-0.44875 -0.075,-0.52625 -0.15,-0.525 -0.075,-0.6 -0.15,-0.59875 -0.15,-0.52625 -0.075,-0.675 -0.15,-0.6 -0.15,-0.525 -0.15,-0.6 -0.075,-0.6 -0.15,-0.6 -0.15,-0.525 -0.15,-1.05 -0.15,-0.45 -0.075,-0.375 -0.075,-0.45 -0.15,-0.6 -0.075,-0.225 0,-0.15 -0.075,-0.15 0.075,-0.075 0.15,-0.225 0.225,-0.375 0.3,-0.45 0.375,-0.6 0.45,-0.6 0.9,-1.35 0.525,-0.675 0.45,-0.675 0.9,-1.2 0.3,-0.45 0.6,-0.6 0.15,-0.075 0.15,0 0.15,-0.075 0.15,0 0.225,-0.075 0.225,0 0.225,-0.075 0.3,-0.0738 0.3,-0.0762 0.375,-0.075 0.3,-0.15 0.375,-0.075 0.75,-0.3 0.45,-0.22375 0.45,-0.15125 0.375,-0.225 0.45,-0.225 0.375,-0.225 0.45,-0.225 0.45,-0.29875 0.375,-0.30125 0.45,-0.375 0.375,-0.3 0.375,-0.375 0.75,-0.89875 0.375,-0.37625 0.9,-1.575 7.575,-2.325" />
    <path
       inkscape:connector-curvature="0"
       id="path2072"
       style="fill:#ffffff;fill-opacity:1;fill-rule:evenodd;stroke:none"
       d="m 170.82321,425.60506 -0.9,-0.3 -0.525,-0.15 -1.35,-0.45 -0.45,-0.075 -0.525,-0.15 -0.45,-0.075 -0.45,-0.0738 -0.9,-0.15125 -0.45,0 -0.45,-0.075 -0.45,0 -0.45,-0.075 -1.425,0 -0.45,0.075 -0.45,0 -0.45,0.075 -0.45,0 -0.525,0.075 -0.45,0.0762 -0.45,0.14875 -0.45,0.075 -0.45,0.075 -0.525,0.15 -0.9,0.3 -0.525,0.15 0,1.275 -0.075,0.3 0,3.225 0.075,0.3 0,0.9 0.075,0.3 0,0.3 0.075,0.3 0,0.3 0.075,0.375 0.075,0.3 0,0.3 0.075,0.3 0.075,0.375 0.075,0.3 0.15,0.75 0,0.3 0.075,0.3 0.15,0.3 0.075,0.3 0.225,0.37625 0.45,0.59875 0.3,0.3 0.375,0.3 0.45,0.225 1.05,0.45 0.6,0.225 0.675,0.225 0.75,0.15 0.9,0.075 0.825,0 0.75,-0.075 0.675,-0.15 0.6,-0.15 0.6,-0.225 0.45,-0.225 0.375,-0.3 0.375,-0.225 0.3,-0.3 0.3,-0.375 0.225,-0.3 0.15,-0.3 0.15,-0.375 0.15,-0.3 0.075,-0.3 0.075,-0.375 0.15,-0.225 0.075,-0.3 0.15,-0.225 0.075,-0.225 0.075,-0.3 0.15,-0.225 0.075,-0.225 0.075,-0.3 0.15,-0.45 0.075,-0.3 0.075,-0.225 0.075,-0.3 0,-0.225 0.15,-0.6 0.075,-0.225 0.075,-0.3 0,-0.3 0.15,-0.6 0,-0.3 0.075,-0.37375 0,-0.30125 0.075,-0.375 0,-0.375 0.075,-0.375 0,-0.375 0.075,-0.375 0,-0.375 0.075,-0.45 0,-0.45" />
    <path
       inkscape:connector-curvature="0"
       id="path2074"
       style="fill:#2744a0;fill-opacity:1;fill-rule:nonzero;stroke:none"
       d="m 157.62321,427.03006 0.375,-0.525 0.375,-0.075 0.375,-0.075 0.3,-0.15 0.3,-0.075 0.75,-0.15 0.3,-0.075 0.3,0 0.375,-0.075 0.3,0 0.375,-0.075 0.675,0 0.3,-0.075 0.675,0 0.3,0.075 0.675,0 0.375,0.075 0.3,0 0.3,0.075 0.75,0.15 0.3,0.075 0.375,0.075 0.3,0.075 0.375,0.075 0.3,0.15 0.3,0.0762 0.375,0.14875 0.3,0.15 -0.375,0.975 -0.3,-0.075 -0.3,-0.15 -0.375,-0.075 -0.3,-0.15 -0.9,-0.225 -0.3,-0.075 -0.375,-0.075 -0.3,-0.075 -0.3,0 -0.3,-0.075 -0.3,0 -0.3,-0.075 -1.875,0 -0.3,0.075 -0.6,0 -0.3,0.075 -0.375,0.075 -0.3,0 -0.3,0.075 -0.3,0.075 -0.3,0.075 -0.375,0.15 -0.6,0.15 0.375,-0.45 -1.125,-0.075 0.075,-0.375 0.3,-0.15 -0.375,0.525" />
    <path
       inkscape:connector-curvature="0"
       id="path2076"
       style="fill:#2744a0;fill-opacity:1;fill-rule:nonzero;stroke:none"
       d="m 158.07321,434.00506 0,0.075 -0.075,-0.45 -0.075,-0.525 -0.15,-0.45 0,-0.44875 -0.075,-0.45125 -0.075,-0.375 0,-0.9 -0.075,-0.45 0,-1.19875 0.075,-0.45125 0,-1.35 1.125,0.075 -0.075,0.45 0,3.3 0.075,0.375 0,0.45 0.075,0.375 0.3,1.8 0.075,0.075 -1.125,0.075" />
    <path
       inkscape:connector-curvature="0"
       id="path2078"
       style="fill:#2744a0;fill-opacity:1;fill-rule:nonzero;stroke:none"
       d="m 162.87321,437.45506 -0.075,0 -0.6,-0.075 -1.575,-0.45 -0.375,-0.15 -0.375,-0.225 -0.375,-0.15 -0.3,-0.225 -0.3,-0.3 -0.15,-0.225 -0.225,-0.3 -0.15,-0.225 -0.075,-0.3 -0.15,-0.3 0,-0.225 -0.075,-0.3 1.125,-0.075 0,0.3 0.075,0.22625 0.075,0.14875 0.075,0.225 0.45,0.45 0.225,0.15 0.3,0.225 0.6,0.3 0.45,0.075 0.375,0.15 0.525,0.075 0.6,0.075 -0.075,0 0,1.125" />
    <path
       inkscape:connector-curvature="0"
       id="path2080"
       style="fill:#2744a0;fill-opacity:1;fill-rule:nonzero;stroke:none"
       d="m 167.67321,434.38006 0,-0.075 -0.15,0.45 -0.075,0.3 -0.15,0.225 -0.15,0.30125 -0.15,0.22375 -0.225,0.3 -0.225,0.225 -0.3,0.225 -0.75,0.45 -0.45,0.15 -0.45,0.075 -0.525,0.15 -0.6,0.075 -0.6,0 0,-1.125 0.6,0 0.45,-0.075 0.45,-0.075 0.375,-0.075 0.6,-0.3 0.225,-0.075 0.525,-0.525 0.15,-0.225 0.075,-0.15 0.15,-0.225 0,-0.225 0.075,-0.15 0.075,-0.225 0,-0.075 1.05,0.45" />
    <path
       inkscape:connector-curvature="0"
       id="path2082"
       style="fill:#2744a0;fill-opacity:1;fill-rule:nonzero;stroke:none"
       d="m 168.72321,426.88006 0.375,0.525 0,0.6 -0.075,0.6 -0.075,0.525 -0.075,0.45 0,0.525 -0.075,0.45 -0.075,0.375 -0.075,0.45 -0.15,0.375 -0.15,0.75 -0.15,0.375 -0.075,0.375 -0.45,1.125 -1.05,-0.45 0.3,-0.75 0.15,-0.3 0.075,-0.3 0.15,-0.37375 0.075,-0.30125 0.225,-1.125 0.075,-0.45 0.075,-0.37375 0.075,-0.45125 0.075,-0.525 0,-0.525 0.075,-0.525 0.075,-0.6 0.3,0.525 0.375,-0.975 0.45,0.15 -0.075,0.375 -0.375,-0.525" />
    <path
       inkscape:connector-curvature="0"
       id="path2084"
       style="fill:#ffffff;fill-opacity:1;fill-rule:nonzero;stroke:none"
       d="m 151.99821,426.65506 3.22462,0 0,-1.6499 -3.22462,0 0,1.6499 z" />
    <path
       inkscape:connector-curvature="0"
       id="path2086"
       style="fill:#ffffff;fill-opacity:1;fill-rule:nonzero;stroke:none"
       d="m 151.99821,428.60506 3.22462,0 0,-1.65039 -3.22462,0 0,1.65039 z" />
    <path
       inkscape:connector-curvature="0"
       id="path2088"
       style="fill:#ffffff;fill-opacity:1;fill-rule:evenodd;stroke:none"
       d="m 132.34821,423.28006 -0.975,1.425 4.5,2.25 0,-0.075 0.075,-0.075 0,-0.45 -0.075,-0.225 0,-0.375 -0.075,-0.15 0,-0.075 0.15,-0.0738 0.075,-0.0762 0.15,-0.075 0.075,-0.075 0.075,0 0,-0.075 -3.975,-1.875" />
    <path
       inkscape:connector-curvature="0"
       id="path2090"
       style="fill:#ffffff;fill-opacity:1;fill-rule:evenodd;stroke:none"
       d="m 134.67321,423.88006 1.875,1.05 2.7,-0.675 -4.575,-0.375" />
    <path
       inkscape:connector-curvature="0"
       id="path2092"
       style="fill:#ffffff;fill-opacity:1;fill-rule:evenodd;stroke:none"
       d="m 135.94821,427.40506 -2.1,-0.6 1.725,7.425 0.15,0.075 0.225,0.15125 0.3,0.0738 0.3,0.225 0.375,0.15 0.45,0.225 0.375,0.15 -0.15,-0.45 -0.225,-0.45 -0.15,-0.525 -0.15,-0.45 -0.075,-0.45 -0.15,-0.45 -0.15,-0.525 -0.075,-0.45 -0.15,-0.525 -0.075,-0.45 -0.075,-0.525 -0.15,-0.45 0,-0.52375 -0.15,-0.60125 -0.075,-0.525 0,-0.525" />
    <path
       inkscape:connector-curvature="0"
       id="path2094"
       style="fill:#ffffff;fill-opacity:1;fill-rule:evenodd;stroke:none"
       d="m 133.32321,427.93006 -0.6,-1.875 -0.225,-0.075 -0.15,0 -0.225,-0.075 -0.225,0 -0.15,-0.075 -0.825,0 -0.225,0.075 -0.375,0 -0.15,0.075 -0.15,0 -0.15,0.075 -0.15,0 -0.15,0.075 -0.15,0.15 -0.075,0.15 -0.15,0.225 -0.075,0.3 0,0.3 -0.075,0.3 0,1.125 0.075,0.45 0.15,0.45 0.075,0.525 0.225,0.45 0.45,1.05 0.075,0.075 0,0.15 0.15,0.225 0.375,0.75 0.3,0.75 0.225,0.375 0.15,0.45 1.125,2.25 0.225,0.525 0.9,1.80125 0.15,0.44875 0.225,0.375 0.15,0.375 0.225,0.3 0.15,0.375 0.075,0.225 0.15,0.225 0.075,0.225 0.075,0.075 0,0.15 0.15,0 0.15,0.075 0.225,0.075 0.45,0.15 0.9,0.225 0.225,0.0762 0.3,0.0738 0.45,0.15 0.15,0.075 0.075,0 0.225,0.45 0.075,0.225 0.075,0.3 0.15,0.3 0.15,0.375 0.15,0.45 0.15,0.375 0.225,0.525 0.15,0.45 0.225,0.525 0.225,0.6 0.225,0.525 0.675,1.8 0.3,0.6 0.225,0.6 0.225,0.675 0.3,0.6 0.225,0.6 0.3,0.675 0.675,1.8 0.3,0.525 0.225,0.6 0.225,0.525 0.225,0.45125 0.15,0.52375 0.45,0.9 0.3,0.45 0.225,0.375 0.6,0.75 0.375,0.375 1.125,0.90125 0.375,0.22375 0.375,0.3 0.45,0.225 0.375,0.225 0.45,0.15125 0.375,0.14875 0.45,0.225 0.375,0.15 0.45,0.075 0.375,0.15 0.45,0.075 0.375,0.15 0.375,0 1.125,0.225 0.3,0 0.3,0.075 1.05,0 0.675,-0.075 0.675,-0.15 0.75,-0.15 0.675,-0.3 1.35,-0.75 1.35,-0.9 0.6,-0.525 0.975,-0.975 0.45,-0.525 0.375,-0.525 0.3,-0.45 0.225,-0.44875 0.15,-0.37625 0.15,-0.45 0.3,-0.75 0.225,-0.375 0.15,-0.45 0.225,-0.525 0.15,-0.525 0.225,-0.6 0.225,-0.525 0.3,-0.675 0.225,-0.6 0.225,-0.67375 0.225,-0.60125 0.45,-1.35 0.3,-0.6 0.225,-0.675 0.45,-1.2 0.15,-0.6 0.225,-0.59875 0.15,-0.52625 0.225,-0.45 0.15,-0.525 0.075,-0.375 0.15,-0.375 0.15,-0.6 0.075,-0.15 0,-0.3 0.15,-0.15 0.3,-0.14875 0.225,-0.0762 0.225,-0.15 0.225,-0.075 0.3,-0.15 0.225,-0.15 0.3,-0.075 0.9,-0.44875 0.225,-0.22625 0.3,-0.15 0.45,-0.9 0.15,-0.375 0.15,-0.3 0.225,-0.375 0.3,-0.75 0.225,-0.375 0.45,-1.125 0.225,-0.45 0.3,-0.75 0.15,-0.3 0.3,-0.75 0.15,-0.3 0.075,-0.375 0.3,-0.6 0.075,-0.225 0.075,-0.3 0.075,-0.225 0.15,-0.14875 0,-0.22625 0.075,-0.15 0.075,-0.075 0,-0.15 0.075,0 0,-0.225 0.075,-0.225 0,-0.3 0.075,-0.3 0.075,-0.375 0.075,-0.45 0,-0.375 0.15,-0.9 0,-0.825 -0.075,-0.3 0,-0.3 -0.075,-0.225 -0.15,-0.15 -0.15,-0.0738 -0.15,-0.0762 -0.15,-0.075 -0.15,0 -0.15,-0.075 -0.15,-0.075 -0.225,-0.075 -0.15,0 -0.15,-0.075 -0.375,0 -0.15,-0.075 -0.675,0 0,0.15 -0.075,0.225 0,0.45 -0.075,0.15 0,0.225 -0.075,0.225 0,0.22625 0.6,0.14875 0.225,0.075 0.15,0.15 0.15,0.3 0,0.45125 -0.075,0.225 0,0.14875 -0.075,0.15 0,0.825 -0.15,0.3 -0.075,0.225 -0.075,0.3 -0.15,0.3 -0.075,0.3 -0.15,0.375 -0.15,0.45 -0.15,0.375 -0.15,0.45 -0.225,0.375 -0.15,0.45 -0.225,0.45 -0.15,0.525 -0.15,0.45 -0.225,0.45 -0.15,0.45 -0.15,0.375 -0.225,0.45 -0.45,1.125 -0.075,0.3 -0.15,0.375 -0.075,0.225 -0.15,0.225 0,0.15 -0.075,0.15 -0.075,0.075 0,0.075 -0.15,0 -0.225,0.075 -0.3,0.0762 -0.3,0.14875 -0.375,0.15 -0.375,0.075 -0.75,0.3 -0.375,0.075 -0.375,0.15 -0.3,0.075 -0.225,0.075 -0.225,0 0.075,0 0,0.0762 -0.075,0.22375 -0.075,0.3 -0.075,0.375 -0.15,0.45 -0.15,0.525 -0.3,1.2 -0.45,1.35 -0.225,0.75 -0.225,0.825 -0.225,0.75125 -0.225,0.82375 -0.3,0.825 -0.225,0.825 -0.3,0.825 -0.225,0.825 -0.3,0.75 -0.225,0.825 -0.3,0.75 -0.675,2.025 -0.45,1.05 -0.15,0.45 -0.15,0.375 -0.15,0.3 -0.15,0.225 -0.075,0.075 0,0.075 -0.15,0.075 -0.9,0.9 -0.375,0.225 -0.375,0.3 -0.525,0.3 -0.45,0.3 -0.525,0.3 -1.2,0.45 -1.35,0.3 -1.425,0 -1.5,-0.15 -0.75,-0.225 -0.675,-0.225 -1.35,-0.6 -0.675,-0.3 -0.525,-0.375 -0.6,-0.375 -0.9,-0.75 -0.375,-0.375 -0.3,-0.375 -0.225,-0.375 -0.15,-0.3 -0.15,-0.15 -0.075,-0.225 -0.15,-0.3 -0.225,-0.3 -0.15,-0.45 -0.45,-1.05 -0.3,-0.6 -0.225,-0.675 -0.3,-0.675 -0.3,-0.75 -0.3,-0.675 -0.225,-0.825 -0.3,-0.75 -0.3,-0.825 -0.6,-1.49875 -0.3,-0.82625 -0.225,-0.75 -0.3,-0.75 -0.225,-0.675 -0.225,-0.75 -0.45,-1.2 -0.15,-0.6 -0.3,-0.9 -0.075,-0.375 -0.075,-0.3 -0.075,-0.15 0,-0.15 0.075,-0.075 0,0.075 0,-0.075 -0.15,0 -0.15,-0.075 -0.3,-0.0738 -0.225,-0.15125 -0.375,-0.0738 -0.3,-0.15125 -0.375,-0.15 -0.3,-0.075 -0.3,-0.15 -0.3,-0.075 -0.45,-0.15 -0.075,-0.075 -0.075,0 -0.225,-0.45 -0.075,-0.3 -0.15,-0.225 -0.3,-0.75 -0.225,-0.375 -0.15,-0.44875 -0.225,-0.45125 -0.225,-0.525 -0.225,-0.45 -1.35,-3.15 -0.225,-0.45 -0.225,-0.525 -0.225,-0.45 -0.15,-0.45 -0.225,-0.375 -0.3,-0.75 -0.15,-0.29875 -0.075,-0.30125 -0.15,-0.225 -0.075,-0.15 0,-0.075 -0.075,-0.075 2.25,-0.075" />
  </g>
</svg>
