<?xml version="1.0" encoding="UTF-8" standalone="no"?>
<!-- Created with Inkscape (http://www.inkscape.org/) -->

<svg
   xmlns:dc="http://purl.org/dc/elements/1.1/"
   xmlns:cc="http://creativecommons.org/ns#"
   xmlns:rdf="http://www.w3.org/1999/02/22-rdf-syntax-ns#"
   xmlns:svg="http://www.w3.org/2000/svg"
   xmlns="http://www.w3.org/2000/svg"
   xmlns:sodipodi="http://sodipodi.sourceforge.net/DTD/sodipodi-0.dtd"
   xmlns:inkscape="http://www.inkscape.org/namespaces/inkscape"
   width="24.193501mm"
   height="24.172333mm"
   viewBox="0 0 85.725002 85.649997"
   id="svg10820"
   version="1.1"
   inkscape:version="0.91 r"
   sodipodi:docname="no-smoking.svg">
  <defs
     id="defs10822" />
  <sodipodi:namedview
     id="base"
     pagecolor="#ffffff"
     bordercolor="#666666"
     borderopacity="1.0"
     inkscape:pageopacity="0.0"
     inkscape:pageshadow="2"
     inkscape:zoom="5.6"
     inkscape:cx="-6.868066"
     inkscape:cy="37.206267"
     inkscape:document-units="px"
     inkscape:current-layer="layer1"
     showgrid="false"
     fit-margin-top="0"
     fit-margin-left="0"
     fit-margin-right="0"
     fit-margin-bottom="0"
     inkscape:window-width="1920"
     inkscape:window-height="1028"
     inkscape:window-x="-2"
     inkscape:window-y="-3"
     inkscape:window-maximized="1" />
  <metadata
     id="metadata10825">
    <rdf:RDF>
      <cc:Work
         rdf:about="">
        <dc:format>image/svg+xml</dc:format>
        <dc:type
           rdf:resource="http://purl.org/dc/dcmitype/StillImage" />
        <dc:title></dc:title>
      </cc:Work>
    </rdf:RDF>
  </metadata>
  <g
     inkscape:label="Layer 1"
     inkscape:groupmode="layer"
     id="layer1"
     transform="translate(-348.56607,-143.82292)">
    <path
       inkscape:connector-curvature="0"
       id="path796"
       style="fill:#db241c;fill-opacity:1;fill-rule:evenodd;stroke:none"
       d="m 361.09107,156.34792 1.575,-1.575 1.725,-1.35 1.65,-1.35 1.8,-1.2 1.8,-1.125 1.875,-1.05 1.875,-0.9 1.875,-0.825 1.95,-0.75 2.025,-0.675 1.95,-0.525 2.025,-0.45 2.025,-0.3 2.1,-0.3 2.025,-0.15 4.125,0 2.1,0.15 4.05,0.6 2.025,0.45 2.025,0.525 1.95,0.675 1.95,0.75 1.95,0.825 1.875,0.9 1.875,1.05 1.8,1.125 1.725,1.2 1.725,1.35 1.65,1.35 1.575,1.575 1.5,1.575 1.425,1.65 1.35,1.725 1.2,1.725 1.125,1.8 1.05,1.875 0.9,1.875 0.825,1.95 0.75,1.95 0.675,1.95 0.525,2.025 0.45,2.025 0.6,4.05 0.15,2.025 0,4.125 -0.15,2.1 -0.6,4.05 -0.45,2.025 -0.525,2.025 -0.675,1.95 -0.75,1.95 -0.825,1.95 -0.9,1.875 -1.05,1.875 -1.125,1.8 -1.2,1.725 -1.35,1.725 -1.425,1.65 -1.5,1.575 -1.575,1.5 -1.65,1.425 -1.725,1.35 -1.725,1.2 -1.8,1.125 -1.875,1.05 -1.875,0.9 -1.95,0.825 -1.95,0.75 -1.95,0.675 -2.025,0.525 -2.025,0.45 -2.025,0.3 -2.025,0.3 -2.1,0.15 -4.125,0 -2.025,-0.15 -2.1,-0.3 -2.025,-0.3 -2.025,-0.45 -1.95,-0.525 -2.025,-0.675 -1.95,-0.75 -1.875,-0.825 -1.875,-0.9 -1.875,-1.05 -1.8,-1.125 -1.8,-1.2 -1.65,-1.35 -1.725,-1.425 -1.575,-1.5 -1.5,-1.575 -1.425,-1.65 -1.35,-1.725 -1.2,-1.725 -1.125,-1.8 -1.05,-1.875 -0.9,-1.875 -0.825,-1.95 -0.75,-1.95 -0.6,-1.95 -0.525,-2.025 -0.45,-2.025 -0.375,-2.025 -0.225,-2.025 -0.15,-2.1 -0.075,-2.025 0.075,-2.1 0.15,-2.025 0.225,-2.025 0.375,-2.025 0.45,-2.025 0.525,-2.025 0.6,-1.95 0.75,-1.95 0.825,-1.95 0.9,-1.875 1.05,-1.875 1.125,-1.8 1.2,-1.725 1.35,-1.725 1.425,-1.65 1.5,-1.575" />
    <path
       inkscape:connector-curvature="0"
       id="path798"
       style="fill:#ffffff;fill-opacity:1;fill-rule:evenodd;stroke:none"
       d="m 367.61607,163.17292 2.55,-2.25 2.7,-1.95 1.425,-0.9 1.5,-0.75 1.425,-0.75 1.575,-0.6 1.5,-0.6 3.15,-0.9 1.575,-0.375 1.575,-0.225 1.65,-0.225 1.575,-0.075 1.65,-0.075 1.65,0.075 1.575,0.075 1.65,0.225 1.575,0.225 1.575,0.375 3.15,0.9 1.575,0.6 1.5,0.6 1.5,0.75 1.425,0.75 1.425,0.9 2.7,1.95 1.35,1.125 1.2,1.125 1.2,1.275 1.125,1.275 1.05,1.35 0.975,1.35 0.9,1.35 0.75,1.425 0.75,1.5 0.675,1.5 0.6,1.5 0.45,1.5 0.45,1.575 0.6,3.15 0.225,1.575 0.15,3.15 -0.075,1.575 -0.075,1.65 -0.225,1.575 -0.6,3.15 -0.45,1.5 -0.45,1.575 -0.6,1.5 -0.675,1.425 -0.75,1.5 -0.75,1.425 -0.9,1.425 -0.975,1.35 -1.05,1.275 -1.125,1.275 -1.2,1.275 -1.2,1.125 -1.35,1.125 -1.35,1.05 -1.35,0.9 -1.425,0.9 -1.425,0.75 -1.5,0.75 -1.5,0.675 -3.15,1.05 -3.15,0.75 -1.575,0.225 -1.65,0.225 -1.575,0.075 -1.65,0.075 -1.65,-0.075 -1.575,-0.075 -1.65,-0.225 -1.575,-0.225 -3.15,-0.75 -1.575,-0.525 -1.5,-0.525 -1.575,-0.675 -1.425,-0.75 -1.5,-0.75 -1.425,-0.9 -1.35,-0.9 -1.35,-1.05 -2.55,-2.25 -1.2,-1.275 -1.125,-1.275 -1.05,-1.275 -0.975,-1.35 -0.9,-1.425 -0.75,-1.425 -0.75,-1.5 -0.675,-1.425 -0.525,-1.5 -0.525,-1.575 -0.45,-1.5 -0.6,-3.15 -0.225,-1.575 -0.075,-1.65 -0.075,-1.575 0.15,-3.15 0.225,-1.575 0.6,-3.15 0.45,-1.575 1.05,-3 0.675,-1.5 0.75,-1.5 0.75,-1.425 0.9,-1.35 0.975,-1.35 1.05,-1.35 1.125,-1.275 1.2,-1.275" />
    <path
       inkscape:connector-curvature="0"
       id="path800"
       style="fill:#231f20;fill-opacity:1;fill-rule:evenodd;stroke:none"
       d="m 366.49107,176.22292 0.3,-0.6 0.45,-0.6 0.375,-0.525 0.45,-0.6 0.525,-0.6 0.525,-0.525 0.525,-0.6 0.525,-0.525 1.8,-1.575 0.675,-0.45 0.675,-0.525 0.675,-0.45 0.675,-0.375 0.675,-0.45 0.675,-0.375 0.75,-0.375 0.675,-0.375 0.75,-0.3 0.75,-0.225 0.75,-0.3 0.675,-0.225 0.75,-0.15 0.675,-0.15 0.75,-0.15 0.675,-0.075 2.1,0 0.675,0.15 0.6,0.075 0.675,0.225 0.6,0.15 0.525,0.225 0.6,0.15 0.45,0.225 0.525,0.225 0.45,0.3 0.45,0.225 0.45,0.3 0.375,0.225 0.975,0.975 0.3,0.375 0.45,0.75 0.15,0.375 0.225,0.375 0.15,0.45 0.15,0.9 0.075,0.525 0,1.5 -0.15,1.2 -0.15,0.525 -0.15,0.675 -0.15,0.6 -0.45,1.35 -0.6,1.05 -0.3,0.45 -0.3,0.525 -0.75,1.05 -0.3,0.525 -0.375,0.525 -0.45,0.45 -0.75,1.05 -0.45,0.45 -0.375,0.525 -0.45,0.45 -0.45,0.525 -0.375,0.45 -0.45,0.525 -0.45,0.45 -0.45,0.525 -0.45,0.45 -0.45,0.525 -1.35,1.35 -0.375,0.525 -1.35,1.35 -0.375,0.45 -0.45,0.525 -0.45,0.45 -0.375,0.45 0.15,0.075 0.15,0.15 0.15,0.075 0.225,0.15 0.15,0.075 0.225,0.075 0.3,0.15 0.225,0.15 0.3,0.075 0.3,0.15 0.225,0.15 0.3,0.15 0.3,0.225 0.3,0.15 0.3,0.225 0.225,0.15 0.3,0.3 0.3,0.225 0.225,0.225 0.45,0.6 0.15,0.375 0.225,0.3 0.075,0.45 0.15,0.375 0.15,0.9 0,1.05 -0.075,0.525 -0.075,0.6 -0.15,0.6 0.675,-0.975 0.75,-1.05 0.675,-0.975 0.675,-1.05 0.75,-0.975 0.675,-1.05 0.675,-0.975 0.675,-1.05 0.675,-0.975 0.675,-1.05 1.35,-1.95 0.675,-1.05 2.025,-2.925 0.675,-1.05 1.35,-1.95 0.675,-1.05 1.35,-1.95 0.675,-1.05 1.35,-1.95 0.675,-1.05 0.675,-0.975 0.675,-1.05 0.75,-0.975 0.675,-1.05 0.675,-0.975 0.75,-1.05 0.375,-0.225 0.45,-0.225 0.45,-0.15 0.375,-0.075 0.45,-0.15 0.375,0 0.45,-0.075 0.375,0.075 0.375,0 0.75,0.15 0.75,0.3 0.6,0.3 0.3,0.225 0.3,0.225 0.525,0.525 0.45,0.6 0.15,0.3 0.225,0.375 0.075,0.3 0.15,0.375 0.075,0.3 0.15,0.75 0,0.375 -0.075,0.375 0,0.375 -0.15,0.375 -0.75,1.2 -0.825,1.275 -0.75,1.125 -1.5,2.4 -1.5,2.25 -0.75,1.2 -0.675,1.125 -1.5,2.25 -0.675,1.05 -0.75,1.125 -1.35,2.25 -0.75,1.125 -0.675,1.125 -0.75,1.05 -0.675,1.125 -0.75,1.125 -0.675,1.125 -0.75,1.125 -0.675,1.125 -2.25,3.375 -0.75,1.2 -0.75,1.125 -1.5,2.4 -0.825,1.2 -0.75,1.2 -0.3,0.3 -0.375,0.3 -0.3,0.225 -0.75,0.3 -0.45,0.15 -0.375,0.075 -0.9,0 -0.375,-0.075 -0.9,-0.15 -0.375,-0.15 -0.45,-0.15 -0.45,-0.225 -1.125,-0.675 -0.3,-0.3 -0.375,-0.3 -0.3,-0.375 -0.225,-0.3 -0.3,-0.375 -0.15,-0.375 -0.225,-0.375 -0.075,-0.375 -0.15,-0.45 -0.075,-0.375 0,-0.45 0.15,-0.9 0.225,-0.675 0.3,-0.45 0.075,-0.225 0.3,-0.45 0.15,-0.15 0.15,-0.225 0.075,-0.15 0.15,-0.225 0.15,-0.15 0.3,-0.45 0.075,-0.225 0.15,-0.225 0.15,-0.3 0,-0.225 0.075,-0.3 -0.075,-0.225 -0.075,-0.3 -0.075,-0.225 -0.225,-0.3 -0.15,-0.225 -0.225,-0.3 -0.525,-0.525 -0.3,-0.225 -0.3,-0.3 -0.375,-0.3 -0.3,-0.225 -0.375,-0.3 -0.3,-0.225 -0.375,-0.3 -0.3,-0.3 -0.375,-0.225 -0.3,-0.3 -0.375,-0.3 -0.3,-0.225 -0.225,-0.3 -0.3,-0.3 -0.225,-0.3 -0.45,-0.9 -0.075,-0.3 0,-0.6 0.075,-0.3 -1.2,-0.9 -0.3,-0.225 -0.3,-0.3 -0.675,-0.9 -0.45,-0.75 -0.075,-0.375 -0.15,-0.375 -0.15,-0.9 0,-0.45 0.075,-0.225 0.15,-0.6 0.3,-0.6 0.15,-0.375 0.225,-0.3 0.45,-0.75 0.225,-0.3 1.2,-1.5 0.375,-0.375 0.3,-0.375 1.5,-1.5 0.45,-0.375 0.375,-0.375 0.375,-0.3 0.45,-0.375 0.45,-0.3 0.375,-0.375 0.45,-0.3 0.375,-0.3 0.45,-0.3 0.45,-0.225 0.375,-0.3 0.45,-0.225 -0.525,-0.45 -0.45,-0.45 -0.45,-0.375 -0.525,-0.45 -0.45,-0.45 -0.525,-0.45 -0.45,-0.375 -0.45,-0.45 -0.525,-0.45 -0.45,-0.45 -0.525,-0.45 -0.45,-0.375 -0.45,-0.45 -0.525,-0.45 -0.45,-0.45 -0.525,-0.375 -0.3,0.075 -0.75,0.3 -0.3,0.15 -0.75,0.3 -0.3,0.075 -0.75,0.3 -0.3,0.15 -0.375,0.15 -0.375,0.075 -0.3,0.15 -0.375,0.15 -0.375,0.15 -0.3,0.15 -0.375,0.15 -0.375,0.075 -0.3,0.15 -0.75,0.3 -0.375,0.15 -0.3,0.15 -0.375,0.075 -0.375,0.15 -0.3,0.15 -0.75,0.3 -0.3,0.075 -0.75,0.3 -0.3,0.15" />
    <path
       inkscape:connector-curvature="0"
       id="path802"
       style="fill:#ffffff;fill-opacity:1;fill-rule:evenodd;stroke:none"
       d="m 408.26607,170.97292 -0.525,0.825 -0.6,0.825 -0.525,0.825 -0.6,0.825 -0.525,0.825 -0.6,0.825 -0.525,0.825 -0.6,0.825 -1.05,1.65 -0.6,0.825 -0.525,0.825 -0.6,0.825 -0.525,0.825 -0.6,0.825 -0.525,0.825 -0.6,0.825 -1.05,1.65 -0.6,0.825 -0.525,0.825 -0.6,0.75 -0.525,0.825 -0.6,0.825 -0.525,0.825 -0.6,0.825 -0.525,0.825 -0.6,0.825 -1.05,1.65 -0.6,0.825 -0.525,0.825 0.675,-0.3 0.675,-0.15 0.675,-0.075 0.675,0.075 0.6,0.15 0.6,0.225 0.6,0.3 0.525,0.3 0.9,0.9 0.45,0.525 0.3,0.45 0.375,0.525 0.225,0.525 0.225,0.45 0.075,0.45 16.875,-26.25 0,-1.275 -0.075,-0.6 -0.15,-0.6 -0.225,-0.525 -0.3,-0.45 -0.375,-0.45 -0.45,-0.375 -0.45,-0.3 -0.525,-0.225 -0.525,-0.15 -0.675,-0.075 -0.675,0 -0.675,0.075 -0.75,0.225 -0.75,0.3" />
    <path
       inkscape:connector-curvature="0"
       id="path804"
       style="fill:#ffffff;fill-opacity:1;fill-rule:evenodd;stroke:none"
       d="m 367.54107,175.39792 0.3,-0.3 0.375,-0.3 0.3,-0.375 0.375,-0.3 0.375,-0.375 0.375,-0.3 0.75,-0.75 0.375,-0.3 0.375,-0.375 0.9,-0.6 0.375,-0.375 1.35,-0.9 0.525,-0.3 0.9,-0.6 0.525,-0.3 0.525,-0.225 0.525,-0.3 0.525,-0.225 1.05,-0.45 0.6,-0.15 0.6,-0.225 0.525,-0.15 0.6,-0.15 0.675,-0.15 0.6,-0.075 0.6,-0.15 0.675,0 0.6,-0.075 0.6,0 0.525,0.075 0.6,0 0.525,0.15 0.525,0.075 0.525,0.15 0.45,0.15 0.525,0.15 0.375,0.225 0.45,0.225 0.45,0.3 0.375,0.225 0.75,0.6 0.6,0.75 0.225,0.3 0.3,0.45 0.225,0.375 0.225,0.45 0.15,0.375 0.15,0.45 0.075,0.525 0.15,0.45 0.075,0.45 0,1.575 -0.225,1.575 -0.3,1.05 -0.225,0.525 -0.15,0.525 -0.225,0.525 -0.3,0.45 -0.225,0.525 -0.3,0.45 -0.3,0.525 -0.375,0.45 -0.6,0.9 -0.375,0.375 -0.3,0.45 -0.375,0.375 -0.375,0.45 -0.75,0.75 -0.3,0.375 -0.375,0.375 -0.375,0.3 -0.3,0.375 -0.375,0.3 -0.3,0.3 -0.375,0.3 -0.225,0.3 -0.3,0.225 -0.525,0.525 -0.3,0.225 -0.15,0.225 -0.45,0.45 -0.3,0.375 -0.675,0.675 -0.3,0.375 -0.6,0.6 -0.225,0.3 -0.45,0.45 -0.225,0.3 -0.6,0.6 -0.15,0.225 -0.225,0.15 -0.525,-0.3 -0.525,-0.45 -0.375,-0.375 -0.375,-0.45 -0.225,-0.375 -0.225,-0.45 -0.15,-0.45 -0.075,-0.45 0,-0.45 0.075,-0.45 0.075,-0.375 0.15,-0.45 0.45,-0.75 0.3,-0.375 0.375,-0.3 1.8,-1.8 0.3,-0.375 0.375,-0.375 0.3,-0.45 0.375,-0.375 0.375,-0.45 0.375,-0.375 0.75,-0.9 0.75,-0.75 0.3,-0.45 0.75,-0.75 0.3,-0.375 1.2,-1.2 0.225,-0.15 0.375,-0.375 0.225,-0.075 0.075,-0.075 0.225,0 0,0.075 0,-0.075 -0.075,0 -0.3,-0.3 -0.225,-0.15 -0.525,-0.525 -0.3,-0.225 -0.675,-0.675 -0.375,-0.3 -0.75,-0.75 -0.45,-0.375 -0.375,-0.375 -0.45,-0.375 -0.375,-0.375 -0.45,-0.375 -0.75,-0.75 -0.375,-0.3 -0.975,-0.975 -0.3,-0.225 -0.225,-0.225 -0.45,-0.45 -0.15,-0.075 0,-0.075 -0.375,0.075 -0.3,0.15 -0.75,0.15 -0.3,0.15 -0.75,0.3 -0.3,0.15 -0.375,0.15 -0.3,0.15 -0.375,0.225 -0.3,0.15 -0.375,0.225 -0.3,0.225 -0.375,0.15 -0.3,0.225 -0.375,0.225 -0.3,0.225 -0.375,0.225 -0.3,0.225 -0.375,0.15 -0.3,0.225 -0.375,0.225 -0.3,0.225 -0.375,0.225 -0.375,0.225 -0.375,0.15 -0.3,0.225 -0.375,0.15 -0.375,0.225 -0.75,0.3" />
    <path
       inkscape:connector-curvature="0"
       id="path806"
       style="fill:#ffffff;fill-opacity:1;fill-rule:evenodd;stroke:none"
       d="m 379.99107,195.42292 0,0.225 0.075,0.3 0.3,0.45 1.5,1.5 0.45,0.3 0.45,0.45 0.45,0.375 0.45,0.525 0.525,0.45 0.525,0.525 0.525,0.6 0,-0.225 -0.075,-0.3 -0.075,-0.225 0,-0.225 -0.225,-0.675 0,-0.225 -0.15,-0.225 -0.075,-0.15 -0.15,-0.45 -0.3,-0.45 -0.375,-0.375 -0.3,-0.225 -0.3,-0.225 -0.3,-0.225 -0.6,-0.45 -0.375,-0.225 -0.3,-0.15 -0.3,-0.225 -0.3,-0.15 -0.225,-0.15 -0.225,-0.075 -0.225,-0.075 -0.15,-0.075 -0.15,0 -0.075,0.075" />
    <path
       inkscape:connector-curvature="0"
       id="path808"
       style="fill:#ffffff;fill-opacity:1;fill-rule:evenodd;stroke:none"
       d="m 383.96607,206.37292 0.45,-0.225 0.375,-0.15 0.45,-0.15 0.45,-0.075 0.375,-0.075 0.45,-0.075 0.825,0 0.75,0.15 0.375,0.15 0.375,0.075 0.375,0.15 0.3,0.225 0.375,0.15 0.3,0.225 0.9,0.675 0.45,0.45 0.225,0.3 0.225,0.225 0.15,0.3 0.15,0.225 0.15,0.3 0.15,0.45 0.075,0.3 0.075,0.225 0,0.225 -0.075,0.15 0.075,-0.375 0,-0.75 -0.45,-1.125 -0.225,-0.375 -0.6,-0.6 -0.3,-0.375 -0.3,-0.225 -0.3,-0.3 -0.375,-0.225 -1.2,-0.6 -0.225,-0.075 -0.3,-0.075 -0.375,-0.075 -0.6,-0.15 -1.05,0 -0.3,0.075 -0.375,0.075 -0.75,0.3 -0.3,0.15 -0.375,0.225 -0.375,0.3" />
    <path
       inkscape:connector-curvature="0"
       id="path850"
       style="fill:#db241c;fill-opacity:1;fill-rule:evenodd;stroke:none"
       d="m 364.24107,162.72292 5.625,-3.975 51.15,51.15 -4.65,4.95 -52.125,-52.125" />
  </g>
</svg>
