<?xml version="1.0" encoding="UTF-8" standalone="no"?>
<!-- Created with Inkscape (http://www.inkscape.org/) -->

<svg
   xmlns:dc="http://purl.org/dc/elements/1.1/"
   xmlns:cc="http://creativecommons.org/ns#"
   xmlns:rdf="http://www.w3.org/1999/02/22-rdf-syntax-ns#"
   xmlns:svg="http://www.w3.org/2000/svg"
   xmlns="http://www.w3.org/2000/svg"
   xmlns:sodipodi="http://sodipodi.sourceforge.net/DTD/sodipodi-0.dtd"
   xmlns:inkscape="http://www.inkscape.org/namespaces/inkscape"
   width="24.193867mm"
   height="24.193523mm"
   viewBox="0 0 85.726299 85.725083"
   id="svg11510"
   version="1.1"
   inkscape:version="0.91 r"
   sodipodi:docname="not-permitted.svg">
  <defs
     id="defs11512" />
  <sodipodi:namedview
     id="base"
     pagecolor="#ffffff"
     bordercolor="#666666"
     borderopacity="1.0"
     inkscape:pageopacity="0.0"
     inkscape:pageshadow="2"
     inkscape:zoom="7.9195959"
     inkscape:cx="9.219517"
     inkscape:cy="43.627474"
     inkscape:document-units="px"
     inkscape:current-layer="layer1"
     showgrid="false"
     fit-margin-top="0"
     fit-margin-left="0"
     fit-margin-right="0"
     fit-margin-bottom="0"
     inkscape:window-width="1920"
     inkscape:window-height="1028"
     inkscape:window-x="-2"
     inkscape:window-y="-3"
     inkscape:window-maximized="1" />
  <metadata
     id="metadata11515">
    <rdf:RDF>
      <cc:Work
         rdf:about="">
        <dc:format>image/svg+xml</dc:format>
        <dc:type
           rdf:resource="http://purl.org/dc/dcmitype/StillImage" />
        <dc:title></dc:title>
      </cc:Work>
    </rdf:RDF>
  </metadata>
  <g
     inkscape:label="Layer 1"
     inkscape:groupmode="layer"
     id="layer1"
     transform="translate(-359.99397,-438.07088)">
    <path
       inkscape:connector-curvature="0"
       id="path1550"
       style="fill:#db241c;fill-opacity:1;fill-rule:evenodd;stroke:none"
       d="m 372.52027,450.59626 1.64875,-1.5 1.65125,-1.42475 1.72375,-1.35013 1.72625,-1.20025 1.8,-1.125 1.87375,-1.04975 1.87625,-0.89987 1.875,-0.82525 1.94875,-0.75 2.02625,-0.67475 1.94875,-0.5255 2.025,-0.44963 2.025,-0.30037 2.1,-0.29975 2.025,-0.15038 4.12625,0 2.09875,0.15038 4.05,0.60012 2.02625,0.44963 2.02375,0.5255 1.95125,0.67475 1.94875,0.75 1.95125,0.82525 1.875,0.89987 1.875,1.04975 1.8,1.125 1.72375,1.20025 1.72625,1.35013 1.64875,1.42475 1.57625,1.5 1.57375,1.57525 1.35,1.64937 1.35125,1.72563 1.2,1.79975 1.125,1.80025 1.05,1.79987 0.89875,1.8745 0.9,1.95063 1.35,3.8995 0.52625,2.02487 0.45,2.02538 0.29875,2.02487 0.30125,2.10013 0.15,2.02487 0,4.125 -0.15,2.02488 -0.30125,2.10012 -0.29875,2.02488 -0.45,2.025 -0.52625,2.02487 -1.35,3.90038 -0.9,1.94975 -0.89875,1.875 -1.05,1.80025 -1.125,1.79975 -1.2,1.80037 -1.35125,1.72463 -1.35,1.65037 -1.57375,1.57463 -1.57625,1.5 -1.64875,1.42534 -1.72625,1.34961 -1.72375,1.2002 -1.8,1.125 -1.875,1.0498 -1.875,0.90038 -1.95125,0.82472 -1.94875,0.75 -1.95125,0.67529 -2.02375,0.52491 -2.02625,0.45019 -2.025,0.29981 -2.025,0.2246 -2.09875,0.1504 -2.025,0.0747 -2.10125,-0.0747 -2.025,-0.1504 -2.1,-0.2246 -2.025,-0.29981 -2.025,-0.45019 -1.94875,-0.52491 -2.02625,-0.67529 -1.94875,-0.75 -1.875,-0.82471 -1.87625,-0.90039 -1.87375,-1.0498 -1.8,-1.125 -1.72625,-1.2002 -1.72375,-1.34961 -1.65125,-1.42534 -1.64875,-1.5 -1.50125,-1.57463 -1.42375,-1.65037 -1.27625,-1.72463 -1.275,-1.80037 -1.12375,-1.79975 -0.97625,-1.80025 -0.97375,-1.875 -0.82625,-1.94975 -0.74875,-1.94975 -0.60125,-1.95063 -0.52375,-2.02487 -0.45,-2.025 -0.37625,-2.02488 -0.22375,-2.10012 -0.15,-2.02488 -0.0763,-2.10012 0.0763,-2.02488 0.15,-2.02487 0.22375,-2.10013 0.37625,-2.02487 0.45,-2.02538 0.52375,-2.02487 0.60125,-1.94975 0.74875,-1.94975 0.82625,-1.95063 0.97375,-1.8745 0.97625,-1.79987 1.12375,-1.80025 1.275,-1.79975 1.27625,-1.72563 1.42375,-1.64937 1.50125,-1.57525" />
    <path
       inkscape:connector-curvature="0"
       id="path1552"
       style="fill:#ffffff;fill-opacity:1;fill-rule:evenodd;stroke:none"
       d="m 379.04527,457.49613 1.275,-1.20012 1.275,-1.125 2.69875,-1.94975 1.42625,-0.89988 3,-1.5 3,-1.20025 3.14875,-0.89987 3.15,-0.60013 1.65125,-0.22512 1.65,-0.0746 3.22375,0 1.575,0.0746 1.65,0.22512 3.15125,0.60013 3.15,0.89987 1.57375,0.60013 1.5,0.60012 1.50125,0.7495 1.42375,0.7505 1.425,0.89988 2.70125,1.94975 1.35,1.125 2.39875,2.40037 1.125,1.27488 1.05,1.35012 0.97625,1.34963 0.89875,1.42525 1.5,2.85012 0.67625,1.4995 0.59875,1.5005 0.45125,1.57513 0.45,1.4995 0.37375,1.57525 0.45,3.14987 0.0763,1.57525 0.075,1.64988 -0.15125,3.14987 -0.45,3.15038 -0.37375,1.57475 -0.45,1.57525 -0.45125,1.4995 -0.59875,1.5 -0.67625,1.5005 -0.75,1.4995 -0.75,1.42525 -0.89875,1.35012 -0.97625,1.35013 -1.05,1.35 -1.125,1.2745 -2.39875,2.39987 -1.35,1.125 -2.70125,1.95013 -1.425,0.9005 -1.42375,0.7495 -1.50125,0.75 -1.5,0.6 -1.57375,0.60012 -3.15,0.90038 -1.575,0.3745 -1.57625,0.22512 -1.65,0.22513 -1.575,0.0752 -1.64875,0.0746 -1.575,-0.0746 -1.65,-0.0752 -1.65125,-0.22513 -1.575,-0.22512 -1.575,-0.3745 -3.14875,-0.90038 -3,-1.20012 -3,-1.4995 -1.42625,-0.9005 -2.69875,-1.95013 -1.275,-1.125 -1.275,-1.19975 -1.2,-1.20012 -1.125,-1.2745 -1.05,-1.35 -0.975,-1.35013 -0.82625,-1.35012 -0.825,-1.42525 -0.74875,-1.4995 -0.67625,-1.5005 -1.05,-2.9995 -0.45,-1.57525 -0.6,-3.14988 -0.22375,-1.57525 -0.15,-3.14987 0.075,-1.64988 0.075,-1.57525 0.22375,-1.57512 0.6,-3.15 0.45,-1.4995 0.52625,-1.57513 0.52375,-1.5005 0.67625,-1.4995 0.74875,-1.42537 1.65125,-2.85 0.975,-1.34963 1.05,-1.35012 1.125,-1.27488 1.2,-1.20025" />
    <path
       inkscape:connector-curvature="0"
       id="path1554"
       style="fill:#db241c;fill-opacity:1;fill-rule:evenodd;stroke:none"
       d="m 375.14402,458.47126 5.625,-4.04975 51.15125,51.2245 -4.65125,5.0255 -52.125,-52.20025" />
  </g>
</svg>
