<?xml version="1.0" encoding="UTF-8" standalone="no"?>
<!-- Generator: Adobe Illustrator 16.0.0, SVG Export Plug-In . SVG Version: 6.00 Build 0)  -->

<svg
   xmlns:dc="http://purl.org/dc/elements/1.1/"
   xmlns:cc="http://creativecommons.org/ns#"
   xmlns:rdf="http://www.w3.org/1999/02/22-rdf-syntax-ns#"
   xmlns:svg="http://www.w3.org/2000/svg"
   xmlns="http://www.w3.org/2000/svg"
   xmlns:sodipodi="http://sodipodi.sourceforge.net/DTD/sodipodi-0.dtd"
   xmlns:inkscape="http://www.inkscape.org/namespaces/inkscape"
   version="1.1"
   id="Layer_1"
   x="0px"
   y="0px"
   width="172.64024"
   height="172.63925"
   viewBox="0 0 172.64024 172.63925"
   enable-background="new 0 0 223.489 220.489"
   xml:space="preserve"
   inkscape:version="0.91 r"
   sodipodi:docname="nadhack-logo.svg"><metadata
     id="metadata12"><rdf:RDF><cc:Work
         rdf:about=""><dc:format>image/svg+xml</dc:format><dc:type
           rdf:resource="http://purl.org/dc/dcmitype/StillImage" /><dc:title></dc:title></cc:Work></rdf:RDF></metadata><defs
     id="defs10" /><sodipodi:namedview
     pagecolor="#ffffff"
     bordercolor="#666666"
     borderopacity="1"
     objecttolerance="10"
     gridtolerance="10"
     guidetolerance="10"
     inkscape:pageopacity="0"
     inkscape:pageshadow="2"
     inkscape:window-width="1920"
     inkscape:window-height="1028"
     id="namedview8"
     showgrid="false"
     fit-margin-top="0"
     fit-margin-left="0"
     fit-margin-right="0"
     fit-margin-bottom="0"
     inkscape:zoom="1.0703482"
     inkscape:cx="83.840249"
     inkscape:cy="88.323001"
     inkscape:window-x="-2"
     inkscape:window-y="-3"
     inkscape:window-maximized="1"
     inkscape:current-layer="Layer_1" /><g
     id="New_Symbol"
     transform="translate(-27.90425,-25.92825)" /><path
     style="fill:#009966;fill-opacity:1"
     inkscape:connector-curvature="0"
     id="path6"
     d="m 147.35775,25.28175 c -33.712,-33.709 -88.367,-33.709 -122.073,0 -33.713,33.712 -33.713,88.365 0,122.075 33.706,33.71 88.364,33.71 122.073,0 33.71,-33.71 33.71,-88.363 0,-122.075 z m -27.482,90.331 -19.69,-19.687 6.193,-6.193 -3.275,-3.274 -16.645,16.646 3.271,3.277 6.41,-6.413 19.695,19.688 -29.514,29.514 -19.692,-19.689 3.359,-3.356 -23.471,-23.474 -3.363,3.36 -19.687,-19.69 29.515,-29.515 19.688,19.688 -6.414,6.412 4.031,4.03 16.65,-16.647 -4.029,-4.03 -6.197,6.196 -19.689,-19.69 29.3,-29.295 19.685,19.688 -3.355,3.36 23.47,23.472 3.361,-3.36 19.688,19.691 -29.295,29.291 z" /></svg>